<svg xmlns="http://www.w3.org/2000/svg" viewBox="0 0 100 100" width="100" height="100">
  <circle cx="50" cy="50" r="45" fill="#3a6ea5" />
  <path d="M25,40 L75,40 C77.5,40 80,42.5 80,45 L80,70 C80,72.5 77.5,75 75,75 L25,75 C22.5,75 20,72.5 20,70 L20,45 C20,42.5 22.5,40 25,40 Z" fill="#fff" stroke="#3a6ea5" stroke-width="2"/>
  <path d="M30,50 L70,50 M30,60 L70,60" stroke="#3a6ea5" stroke-width="3" stroke-linecap="round"/>
  <path d="M50,20 L50,40" stroke="#fff" stroke-width="4" stroke-linecap="round"/>
  <circle cx="50" cy="20" r="8" fill="#fff"/>
  <path d="M42,30 L30,40 M58,30 L70,40" stroke="#fff" stroke-width="3" stroke-linecap="round"/>
  <path d="M35,22 L25,25 M65,22 L75,25" stroke="#fff" stroke-width="2" stroke-linecap="round"/>
</svg>