<svg xmlns="http://www.w3.org/2000/svg" data-name="Layer 1" width="737.66564" height="573.94482" viewBox="0 0 737.66564 573.94482" xmlns:xlink="http://www.w3.org/1999/xlink"><path d="M605.00781,655.35508H594.01807a6.50753,6.50753,0,0,1-6.5-6.5V591.98682a6.50753,6.50753,0,0,1,6.5-6.5h10.98974a6.50753,6.50753,0,0,1,6.5,6.5v56.86826A6.50753,6.50753,0,0,1,605.00781,655.35508Z" transform="translate(-231.16718 -163.02759)" fill="#3a6ea5"/><path d="M632.00781,655.35508H621.01807a6.50753,6.50753,0,0,1-6.5-6.5V537.37342a6.50753,6.50753,0,0,1,6.5-6.5h10.98974a6.50753,6.50753,0,0,1,6.5,6.5V648.85508A6.50753,6.50753,0,0,1,632.00781,655.35508Z" transform="translate(-231.16718 -163.02759)" fill="#3a6ea5"/><path d="M659.00781,655.35508H648.01807a6.50753,6.50753,0,0,1-6.5-6.5V591.98682a6.50753,6.50753,0,0,1,6.5-6.5h10.98974a6.50753,6.50753,0,0,1,6.5,6.5v56.86826A6.50753,6.50753,0,0,1,659.00781,655.35508Z" transform="translate(-231.16718 -163.02759)" fill="#3a6ea5"/><path d="M585.29886,697.02759h-57.52a21.31162,21.31162,0,0,1-21.28809-21.29v-400.29a21.31162,21.31162,0,0,1,21.28809-21.29h57.52a21.31161,21.31161,0,0,1,21.28808,21.29v400.29A21.31161,21.31161,0,0,1,585.29886,697.02759Zm-57.52-440.87a19.30916,19.30916,0,0,0-19.28809,19.29v400.29a19.30915,19.30915,0,0,0,19.28809,19.29h57.52a19.30914,19.30914,0,0,0,19.28808-19.29v-400.29a19.30915,19.30915,0,0,0-19.28808-19.29Z" transform="translate(-231.16718 -163.02759)" fill="#3f3d56"/><path d="M686.25592,697.02759H585.00787a21.31161,21.31161,0,0,1-21.28808-21.29v-400.29a21.31161,21.31161,0,0,1,21.28808-21.29h101.24805a21.31162,21.31162,0,0,1,21.28809,21.29v400.29A21.31162,21.31162,0,0,1,686.25592,697.02759Zm-101.24805-440.87a19.30915,19.30915,0,0,0-19.28808,19.29v400.29a19.30914,19.30914,0,0,0,19.28808,19.29h101.24805a19.30916,19.30916,0,0,0,19.28809-19.29v-400.29a19.30917,19.30917,0,0,0-19.28809-19.29Z" transform="translate(-231.16718 -163.02759)" fill="#3f3d56"/><rect x="318.83064" y="185.4968" width="140.82" height="8" fill="#ccc"/><rect x="318.83064" y="207.4968" width="140.82" height="8" fill="#ccc"/><rect x="318.83064" y="229.4968" width="140.82" height="8" fill="#ccc"/><path d="M885.30383,577.02759h-56.26a21.31162,21.31162,0,0,1-21.28809-21.29v-112.36a21.31162,21.31162,0,0,1,21.28809-21.29h56.26a21.31162,21.31162,0,0,1,21.28809,21.29v112.36A21.31162,21.31162,0,0,1,885.30383,577.02759Zm-56.26-152.94a19.30917,19.30917,0,0,0-19.28809,19.29v112.36a19.30917,19.30917,0,0,0,19.28809,19.29h56.26a19.30917,19.30917,0,0,0,19.28809-19.29v-112.36a19.30917,19.30917,0,0,0-19.28809-19.29Z" transform="translate(-231.16718 -163.02759)" fill="#3f3d56"/><circle cx="365.67666" cy="73" r="73" fill="#f2f2f2"/><path d="M932.9936,388.16415c-1.92-.69-3.52,1.49-3.59,3.54s.8,3.87,1.48,5.76a53.92309,53.92309,0,0,1,2.18,26.39c-.72,4.57-2.08,9.04-2.37,13.65-.57,9.08,1.88,18.06,3.82,26.92,1.03,4.71,1.9,9.48,2.37,14.29.62,6.34.54,12.73.35,19.11a148.36328,148.36328,0,0,1-1.83,20.66c-.46,2.93-.98,5.86-1.86,8.69A61.75326,61.75326,0,0,1,929.70361,537.88411a55.27171,55.27171,0,0,1-9.39,13.03,53.05657,53.05657,0,0,1-9.74,7.75c-1.76,1.07-3.77-.7-3.16-2.63q.52-1.62.98-3.25a47.92912,47.92912,0,0,0-.85-29.07,83.22466,83.22466,0,0,0-3.95-8.38c-1.49-2.82-3.05-5.58-4.68-8.3a212.61227,212.61227,0,0,0-16.99-24.94q-5.04-6.435-10.49-12.53c-1.64-1.84-3.32-3.63-5.06-5.36-1.2-1.19-1.97-2.46-2.48-3.98a25.56253,25.56253,0,0,1-1.05-4.4,134.54462,134.54462,0,0,1-1.35-20.16c.08-4.68.37-9.35-.03-14.03-.23-2.69-.68-5.38-.74-8.08-.06-2.62.23-5.24.22-7.86a24.48999,24.48999,0,0,0-1.36-7.68,12.86274,12.86274,0,0,0-4.8-6.49,17.94043,17.94043,0,0,0-7.51-2.68c-5.63-.83-11.37-.91-17.04-.58a93.77026,93.77026,0,0,0-11.55,1.58c-1.91001.38-2.81-2.38-.91-2.99a41.32935,41.32935,0,0,1,8.63-2.65c3.12-.57,6.29-.92,9.46-1.12,6.8-.44,13.64-.3,20.33,1.11,3.25.69,6.6,1.71,9.26,3.81,2.53,2,4.05,4.83,4.99,7.8a38.97627,38.97627,0,0,1,1.4,8.2c.2,4.88-.74,9.76-.54,14.65.16,4,.77,7.98.91,11.98a125.37732,125.37732,0,0,0,1.57,17.74,55.48755,55.48755,0,0,0,1.25,6.11c.58,2.19,1.78,4.24,3.18,6.01,2.33,2.93,5.24,5.65,7.96,8.18a197.667,197.667,0,0,1,22.79,24.97c3.22,4.25,6.24,8.62,9.23,13.01,1.45,2.12,2.89,4.25,4.26,6.42,1.21,1.92,2.38,3.86,3.52,5.82a51.67,51.67,0,0,1,6.36,16.73,51.13276,51.13276,0,0,1,.43,16.69,39.12059,39.12059,0,0,1-1.18,5.21c-.63,2.31-1.58,4.22-2.68,6.38a54.03333,54.03333,0,0,0,24.17-27.61c1.84-5.11,3.14-10.42,4.07-15.78a175.18559,175.18559,0,0,0,1.89-18.26c.47-7.86.49-15.76-.19-23.63-.6-7.03-1.82-13.97-3.2-20.9-1.29-6.45-2.54-12.99-2.37-19.61a66.12685,66.12685,0,0,1,1.95-14.55c.92-3.67,2.07-7.27,2.69-11.02a49.12414,49.12414,0,0,0-1.37-23.94,43.10362,43.10362,0,0,0-1.96-4.86C935.79358,389.29417,934.87359,388.83414,932.9936,388.16415Z" transform="translate(-231.16718 -163.02759)" fill="#e6e6e6"/><path d="M884.00957,533.2462c-2.81-1.62-6,.06-7.77,2.62a19.87387,19.87387,0,0,0-2.49,8.1c-1.04,7.93-.2,15.94-.57,23.93-.2,4.22-.79,8.42-1.11,12.64a118.65,118.65,0,0,0,.48,20.59c1.2,12.64,4.46,25.13,4.18,37.85-.11,4.92-1.07,9.78-1.57,14.68-1.7,16.57.73,33.69,8.4,48.59.55,1.07,2.18.13,1.74-.83-7.7-16.81-7.46-35.55-6.54-53.64.24-4.77.54-9.54,1.6-14.22,1.28-5.66,3.44-11.1,3.96-16.89,1.09-12.11-2.23-24.15-3.69-36.2a114.55057,114.55057,0,0,1-.54-20.47c.27-4.25.83-8.48,1.08-12.74.48-8.22-.45-16.37,2.06-24.24,1.05-3.29,2.83-6.29,5.76-8.36a5.24485,5.24485,0,0,1,2.56-.87,4.01841,4.01841,0,0,1,2.51.98c.93.8,2.15-.72,1.26-1.48A7.05445,7.05445,0,0,0,884.00957,533.2462Z" transform="translate(-231.16718 -163.02759)" fill="#e6e6e6"/><path d="M876.69358,563.98417c-5.44.28-10.92.29-16.31-.2-2.7-.25-5.38-.62-8.08-.79a37.0762,37.0762,0,0,0-7.89.43,46.82936,46.82936,0,0,0-13.57,4.23c-1.42.67-.54,2.72.91,2.13,5.13-2.12,10.66-3.3,16.22-3.57a49.00314,49.00314,0,0,1,8.04.32c2.69.32,5.37.75,8.07,1,5.41.42,10.84.32,16.26.02C872.05355,567.45421,878.42357,563.8842,876.69358,563.98417Z" transform="translate(-231.16718 -163.02759)" fill="#e6e6e6"/><path d="M880.27233,574.75835c-1.94-3.68-6.4-4.49-10.4-4.07-4.5.48-8.5,2.93-11.56,6.22a33.07061,33.07061,0,0,0-8.13,14.77c-1.33,5.27-1.71,10.72-2.95,16-1.18,5.03-3.16,9.86-5.18,14.6-3.73,8.76-7.8,17.41-10.25,26.62-1.12,4.21-1.95,8.39-4.33,12.12-.93,1.46.92,3.06,1.89,1.54,4.48-6.99,5.92-15.31,8.82-23.09,3.11-8.33,7.13-16.24,10.93-24.25,1.89-3.96,3.77-7.92,5.09-12.13,1.23-3.91,1.77-7.94,2.42-12.01a48.41842,48.41842,0,0,1,1.88-8.69c2.12-6.06,6.78-11.37,13.1-12.95a10.39337,10.39337,0,0,1,3.41-.19c.82.13,1.72.55,2.13,1.29a3.204,3.204,0,0,1,.27,1.83,2.32855,2.32855,0,0,0,4.24,1.19A7.094,7.094,0,0,0,880.27233,574.75835Z" transform="translate(-231.16718 -163.02759)" fill="#e6e6e6"/><path d="M867.35249,610.52756c-3.75-2.03-8.18-2.17-12.47-2.02-4.62.16-9.24.49-13.85.82q-5.83.42-11.65.91c-3.85.33-7.7.67-11.55,1.09-3.62.39-7.33.95-10.37,3.1-1.63,1.15-.28,3.72,1.41,2.61a24.4513,24.4513,0,0,1,8.13-2.84c3.21-.48,6.44-.77,9.67-1.08q5.73-.54,11.45-1.01c3.86-.3,7.71-.58,11.57-.83,3.56-.23,7.46-.29,10.91.79,3.09.97,5.38,3.11,8.11,4.66C870.49249,617.94752,869.70248,611.78757,867.35249,610.52756Z" transform="translate(-231.16718 -163.02759)" fill="#e6e6e6"/><path d="M881.24355,632.11486a7.36046,7.36046,0,0,0-2.9-4.09,28.938,28.938,0,0,0-5.9-2.55c-8.8-3.17-17.68-6.37-27.01-7.57a49.3732,49.3732,0,0,0-14.3-.07,32.15889,32.15889,0,0,0-12.56,4.72c-1.32.85-2.53,1.82-3.76,2.74-1.52,1.14-1.21,3.56.6,2.59,7.68-4.14,16.33-5.86,25.08-5.23,9.1.66,17.92,3.6,26.51,6.65a64.84578,64.84578,0,0,1,7.7,3.22,8.76263,8.76263,0,0,1,3.44,2.41,1.54434,1.54434,0,0,1-.14,2.14A1.498,1.498,0,0,0,881.24355,632.11486Z" transform="translate(-231.16718 -163.02759)" fill="#e6e6e6"/><path d="M366.26342,635.769h-55.26a21.31162,21.31162,0,0,1-21.28809-21.29v-112.36a21.31162,21.31162,0,0,1,21.28809-21.29h55.26a21.31162,21.31162,0,0,1,21.28809,21.29v112.36A21.31162,21.31162,0,0,1,366.26342,635.769Zm-55.26-152.94a19.30917,19.30917,0,0,0-19.28809,19.29v112.36a19.30917,19.30917,0,0,0,19.28809,19.29h55.26a19.30917,19.30917,0,0,0,19.28809-19.29v-112.36a19.30917,19.30917,0,0,0-19.28809-19.29Z" transform="translate(-231.16718 -163.02759)" fill="#3f3d56"/><path d="M444.48037,655.03483H334.09a13.11512,13.11512,0,0,1-13.10351-13.1001v-59.48a13.11611,13.11611,0,0,1,13.10351-13.1001H444.48037a13.11611,13.11611,0,0,1,13.10352,13.1001v59.48A13.11512,13.11512,0,0,1,444.48037,655.03483Z" transform="translate(-231.16718 -163.02759)" fill="#ccc"/><path d="M345.22716,701.21477H309.773a15.73188,15.73188,0,0,1-15.65674-14.11963L282.173,536.634a15.73286,15.73286,0,0,1,15.65723-17.3457h35.45459a15.73177,15.73177,0,0,1,15.65625,14.1201l11.93946,150.46094A15.73235,15.73235,0,0,1,345.22716,701.21477Zm-47.39648-180.92578a14.73193,14.73193,0,0,0-14.66943,16.24121l11.93994,150.46094a14.73145,14.73145,0,0,0,14.66895,13.22363h35.45459a14.73192,14.73192,0,0,0,14.66895-16.24121l-11.939-150.46094a14.73239,14.73239,0,0,0-14.67041-13.22363Z" transform="translate(-231.16718 -163.02759)" fill="#3f3d56"/><rect x="78.1595" y="383.32999" width="59.49004" height="136.31993" fill="#fff"/><path d="M364.83155,683.68741H306.33337a6.50753,6.50753,0,0,1-6.5-6.5V540.85505a6.50753,6.50753,0,0,1,6.5-6.5h58.49818a6.50753,6.50753,0,0,1,6.5,6.5V677.18741A6.50753,6.50753,0,0,1,364.83155,683.68741Z" transform="translate(-231.16718 -163.02759)" fill="#e6e6e6"/><rect x="94.59553" y="410.75872" width="25.58998" height="6.07001" rx="1.92315" fill="#3a6ea5"/><rect x="94.59553" y="437.89845" width="25.58998" height="6.07001" rx="1.92315" fill="#3a6ea5"/><circle cx="107.3905" cy="488.01852" r="9.59001" fill="#3a6ea5"/><polygon points="318.55 385.008 300.404 385.008 300.404 409.281 324.677 409.281 324.677 391.135 318.55 385.008" fill="#fff"/><path d="M541.00143,556.03483H520.84371a1.51326,1.51326,0,0,1-1.51172-1.51172V530.76534h-18.21a1.51327,1.51327,0,0,1-1.51221-1.51172v-20.1582a1.51327,1.51327,0,0,1,1.51221-1.51172h18.21v-18.21a1.51326,1.51326,0,0,1,1.51172-1.51172h20.15772a1.51327,1.51327,0,0,1,1.51172,1.51172v18.21h18.21a1.51327,1.51327,0,0,1,1.51172,1.51172v20.1582a1.51327,1.51327,0,0,1-1.51172,1.51172h-18.21v23.75777A1.51326,1.51326,0,0,1,541.00143,556.03483Z" transform="translate(-231.16718 -163.02759)" fill="#3a6ea5"/><polygon points="458.184 182.505 470.444 182.505 464.314 146.005 458.182 146.006 458.184 182.505" fill="#ffb8b8"/><path d="M686.22559,342.03q-.21423,0-.43066-.02051l-16.96143-.8125a4.4818,4.4818,0,0,1-4.00976-5.11523c3.42578-23.75391,6.93554-32.73242,13.16943-41.86524a4.49152,4.49152,0,0,1,5.28809-1.60156L704.335,302.47305a4.49976,4.49976,0,0,1,2.47949,5.37207l-16.34912,30.627A4.51266,4.51266,0,0,1,686.22559,342.03Z" transform="translate(-231.16718 -163.02759)" fill="#ccc"/><polygon points="344.151 294.841 330.091 298.681 333.285 333.688 352.649 334.01 344.151 294.841" fill="#ffb8b8"/><path d="M562.38291,455.45787h23.64387a0,0,0,0,1,0,0v14.88687a0,0,0,0,1,0,0H547.49606a0,0,0,0,1,0,0v0A14.88685,14.88685,0,0,1,562.38291,455.45787Z" transform="translate(38.04953 -399.92756) rotate(10.26106)" fill="#2f2e41"/><polygon points="439.184 561.505 451.444 561.505 457.276 514.218 439.182 514.218 439.184 561.505" fill="#ffb8b8"/><path d="M667.22559,721.03q-.21423,0-.43066-.02051l-16.96143-.8125a4.4818,4.4818,0,0,1-4.00976-5.11523c3.42578-23.75391,6.93554-32.73242,13.16943-41.86524a4.49152,4.49152,0,0,1,5.28809-1.60156L685.335,681.47305a4.49976,4.49976,0,0,1,2.47949,5.37207l-16.34912,30.627A4.51266,4.51266,0,0,1,667.22559,721.03Z" transform="translate(-231.16718 -163.02759)" fill="#2f2e41"/><circle cx="354.95865" cy="187.82145" r="24.56103" fill="#ffb8b8"/><path d="M570.16718,386.02759c-.43018-.12012-10.06006-2.3501-21.04-2.93018-.16015-.01953-.3501-.00976-.54.00977-3.31005.06006-6.7998.3501-10.28028,1.16015-21.61963,5.07032-43.64013,10.06006-52.15966-23.10009-.18018-.31983-.4502-.67969-.69971-1.08985-2.7002-4.51025-4.06006-9.5-3.82031-14.69971a19.6875,19.6875,0,0,1,.24023-1.93018,30.121,30.121,0,0,1,6.06983-13.5a23.9385,23.9385,0,0,1,18.33984-8.89014H506.1375a.39182.39182,0,0,0,.12012-.01953c-.07031-.06982-.1499-.14013-.22021-.21a3.89356,3.89356,0,0,0-4.0498-.48974,18.52438,18.52438,0,0,0-9.48,10.93994l-.58008,1.8999-1.91992-.43994c-.12012-.02979-.23975-.0498-.35987-.06983-8.41016-.93994-17.97021,5.75-22.12011,15.54l-.33008.8-.7998-.41015c-3.26025-1.66993-4.29053-7.31006-3.52051-9.70020,3.16015-9.83985,14.6499-16.14991,24.66015-16.14991,2.56006,0,4.94971.40967,7.08008,1.22021A25.43986,25.43986,0,0,1,533.1072,329.627a47.2645,47.2645,0,0,1,7.48,19.95c.07031.41015.1499.83007.21,1.25,1.81006,10.10986,6.08008,16.14013,12.70019,17.93994,8.69971,2.3501,18.6499-2.8501,23.67969-12.39014C591.50748,329.72758,573.43762,386.81779,570.16718,386.02759Z" transform="translate(-231.16718 -163.02759)" fill="#2f2e41"/><path d="M502.6072,376.877a10.74267,10.74267,0,0,0,3.84155-16.01842l25.033-138.54005H518.67488L495.325,361.087a10.80091,10.80091,0,0,0,7.28223,15.79Z" transform="translate(-231.16718 -163.02759)" fill="#ffb8b8"/><path d="M525.16718,235.02759h-8c-5.81982-3.5-9.62012-8.75-10-14h-14a4.94923,4.94923,0,0,0-.87988.07031l-.56006.16993-4.31,16.92968-27.75,40.83985v.00976l-2.12012,3.14014-.83984,1.24023-7.72022,72.7002a4.52831,4.52831,0,0,0,.12012,1.5l13.35986,52.96,2.39991,9.52,3.23,12.80029,4.8999,19.39991,3.12012,12.33985c-2.43994,8.04-2.89991,17.1499,0,27.08007a3.50476,3.50476,0,0,0,.18995.60986,4.003,4.003,0,0,0,1.3999,1.75,4.93533,4.93533,0,0,0,1.68994.74024,6.69378,6.69378,0,0,0,1.09009.21h.00976q.34546.045.69043.06006h15a3.87342,3.87342,0,0,0,3.18994-1.76026c.12011-.17968.24023-.35986.35009-.56005.10988-.18994.21-.37989.32032-.58008,2.08984-4.03979,3.25-13.46972,4.1499-25.66993l2.11-28.66992,1.23975-16.7998a14.1566,14.1566,0,0,1,1.42041-5.5a5.87959,5.87959,0,0,1,3.02-2.43994l28.83984-18.6001,2.66992-1.71973a.82515.82515,0,0,0,.27-.27026l25.26026-31.48a4.50686,4.50686,0,0,0,.38964-.6001L569.27281,334.74773a16.05827,16.05827,0,0,0,1.39746-7.72021,12.71089,12.71089,0,0,0-1.16943-4.75c-.10986-.23974-.2295-.46973-.35986-.7002a16.02708,16.02708,0,0,0-4.98-5.45995l-.18994-.12012c-.27-.16993-.54-.3501-.81982-.52L549.27281,306.017c-.06983-.04-.14014-.08984-.21-.12988-.58008-.33008-1.18018-.66992-1.79-1.04l-.27-.16992c-.12012-.08008-.23-.1499-.35986-.22022a24.43756,24.43756,0,0,0-2.5503-1.31982,23.63993,23.63993,0,0,0-9.08007-1.93018l-8.5-.10986Z" transform="translate(-231.16718 -163.02759)" fill="#ccc"/><path d="M361.84281,513.38h-95.52a17.11177,17.11177,0,0,1-17.09-17.09v-67.37a17.11177,17.11177,0,0,1,17.09-17.09h95.52a17.11177,17.11177,0,0,1,17.09,17.09v67.37A17.11177,17.11177,0,0,1,361.84281,513.38Z" transform="translate(-231.16718 -163.02759)" fill="#fff"/><path d="M361.8428,514.38037h-95.52a18.11069,18.11069,0,0,1-18.09-18.09V428.91989a18.11069,18.11069,0,0,1,18.09-18.09h95.52a18.11069,18.11069,0,0,1,18.09,18.09v67.37048A18.11069,18.11069,0,0,1,361.8428,514.38037Zm-95.52-101.55048a16.10834,16.10834,0,0,0-16.09,16.09v67.37048a16.10834,16.10834,0,0,0,16.09,16.09h95.52a16.1084,16.1084,0,0,0,16.09-16.09V428.91989a16.1084,16.1084,0,0,0-16.09-16.09Z" transform="translate(-231.16718 -163.02759)" fill="#3f3d56"/><path d="M354.8114,441.58593H273.3642a4.51837,4.51837,0,0,1-4.51326-4.51328v-7.65488a4.51838,4.51838,0,0,1,4.51326-4.51328H354.8114a4.51837,4.51837,0,0,1,4.51327,4.51328v7.65488A4.51836,4.51836,0,0,1,354.8114,441.58593Z" transform="translate(-231.16718 -163.02759)" fill="#3a6ea5"/><path d="M354.8114,467.58593H273.3642a4.51837,4.51837,0,0,1-4.51326-4.51328v-7.65488a4.51838,4.51838,0,0,1,4.51326-4.51328H354.8114a4.51837,4.51837,0,0,1,4.51327,4.51328v7.65488A4.51836,4.51836,0,0,1,354.8114,467.58593Z" transform="translate(-231.16718 -163.02759)" fill="#3a6ea5"/><path d="M354.8114,492.76173H273.3642a4.51837,4.51837,0,0,1-4.51326-4.51328v-7.65487a4.51838,4.51838,0,0,1,4.51326-4.51329H354.8114a4.51837,4.51837,0,0,1,4.51327,4.51329v7.65487A4.51836,4.51836,0,0,1,354.8114,492.76173Z" transform="translate(-231.16718 -163.02759)" fill="#3a6ea5"/><ellipse cx="252.41903" cy="248.36466" rx="3.37672" ry="3.19838" fill="#fff"/><ellipse cx="252.41903" cy="274.36466" rx="3.37672" ry="3.19838" fill="#fff"/><ellipse cx="252.41903" cy="299.54045" rx="3.37672" ry="3.19838" fill="#fff"/><path d="M677.35467,452.58693H617.63872a20.14782,20.14782,0,0,1-20.12509-20.12509V347.92473a20.14782,20.14782,0,0,1,20.12509-20.12509h59.71595a20.14782,20.14782,0,0,1,20.12509,20.12509V432.46184A20.14782,20.14782,0,0,1,677.35467,452.58693Z" transform="translate(-231.16718 -163.02759)" fill="#fff"/><path d="M677.35468,453.58788h-59.716a21.15,21.15,0,0,1-21.126-21.126v-84.5382a21.15,21.15,0,0,1,21.126-21.126h59.716a21.15,21.15,0,0,1,21.126,21.126v84.5382A21.15,21.15,0,0,1,677.35468,453.58788Zm-59.716-124.7902a19.147,19.147,0,0,0-19.126,19.126v84.5382a19.147,19.147,0,0,0,19.126,19.126h59.716a19.147,19.147,0,0,0,19.126-19.126v-84.5382a19.147,19.147,0,0,0-19.126-19.126Z" transform="translate(-231.16718 -163.02759)" fill="#3f3d56"/><path d="M669.08287,362.77839H625.91051a5.33084,5.33084,0,0,1-5.325-5.325v-9.0293a5.33084,5.33084,0,0,1,5.325-5.325h43.17236a5.33084,5.33084,0,0,1,5.325,5.325v9.0293A5.33084,5.33084,0,0,1,669.08287,362.77839Z" transform="translate(-231.16718 -163.02759)" fill="#3a6ea5"/><path d="M669.08287,393.77839H625.91051a5.33084,5.33084,0,0,1-5.325-5.325v-9.0293a5.33084,5.33084,0,0,1,5.325-5.325h43.17236a5.33084,5.33084,0,0,1,5.325,5.325v9.0293A5.33084,5.33084,0,0,1,669.08287,393.77839Z" transform="translate(-231.16718 -163.02759)" fill="#3a6ea5"/><path d="M669.08287,423.75992H625.91051a5.33084,5.33084,0,0,1-5.325-5.325v-9.0293a5.33084,5.33084,0,0,1,5.325-5.325h43.17236a5.33084,5.33084,0,0,1,5.325,5.325v9.0293A5.33084,5.33084,0,0,1,669.08287,423.75992Z" transform="translate(-231.16718 -163.02759)" fill="#3a6ea5"/><ellipse cx="402.74547" cy="198.40069" rx="3.98466" ry="3.77277" fill="#fff"/><ellipse cx="402.74547" cy="229.40069" rx="3.98466" ry="3.77277" fill="#fff"/><ellipse cx="402.74547" cy="259.38223" rx="3.98466" ry="3.77277" fill="#fff"/><path d="M676.9109,586.89059H544.65532a7.03394,7.03394,0,0,1-7.02559-7.02558V514.51346a7.03397,7.03397,0,0,1,7.02559-7.02559H676.9109a7.03397,7.03397,0,0,1,7.02559,7.02559V579.865A7.03394,7.03394,0,0,1,676.9109,586.89059Z" transform="translate(-231.16718 -163.02759)" fill="#f2f2f2"/><path d="M676.9109,586.89059H544.65532a7.03394,7.03394,0,0,1-7.02559-7.02558V514.51346a7.03397,7.03397,0,0,1,7.02559-7.02559H676.9109a7.03397,7.03397,0,0,1,7.02559,7.02559V579.865A7.03394,7.03394,0,0,1,676.9109,586.89059ZM544.65532,509.48837a5.0308,5.0308,0,0,0-5.02558,5.02509V579.865a5.0308,5.0308,0,0,0,5.02558,5.02509H676.9109a5.0308,5.0308,0,0,0,5.02558-5.02509V514.51346a5.0308,5.0308,0,0,0-5.02558-5.02509Z" transform="translate(-231.16718 -163.02759)" fill="#3f3d56"/><path d="M650.54487,539.18491H571.02134a6.33248,6.33248,0,0,1-6.32483-6.32484v-7.05388a6.33248,6.33248,0,0,1,6.32483-6.32484h79.52353a6.33239,6.33239,0,0,1,6.32475,6.32484v7.05388A6.33239,6.33239,0,0,1,650.54487,539.18491Z" transform="translate(-231.16718 -163.02759)" fill="#3a6ea5"/><path d="M650.54487,568.40257H571.02134a6.33248,6.33248,0,0,1-6.32483-6.32484v-7.05389a6.33249,6.33249,0,0,1,6.32483-6.32484h79.52353a6.33239,6.33239,0,0,1,6.32475,6.32484v7.05389A6.33239,6.33239,0,0,1,650.54487,568.40257Z" transform="translate(-231.16718 -163.02759)" fill="#3a6ea5"/><ellipse cx="349.96374" cy="369.65578" rx="4.48521" ry="4.24354" fill="#fff"/><ellipse cx="349.96374" cy="398.87344" rx="4.48521" ry="4.24354" fill="#fff"/><circle cx="325.1438" cy="181.09088" r="46" fill="#3a6ea5"/><path d="M548.31098,326.11848a6,6,0,1,1,6,6A6.00657,6.00657,0,0,1,548.31098,326.11848Zm1.5,0a4.5,4.5,0,1,0,4.5-4.5A4.5051,4.5051,0,0,0,549.81098,326.11848Z" transform="translate(-231.16718 -163.02759)" fill="#fff"/><path d="M527.68516,363.70148a3.00669,3.00669,0,0,1-2.12219-5.12866l73.082-73.08374a3,3,0,0,1,4.24537,4.24414l-73.08154,73.08423A2.9913,2.9913,0,0,1,527.68516,363.70148Z" transform="translate(-231.16718 -163.02759)" fill="#fff"/><path d="M561.381,363.8698a2.9913,2.9913,0,0,1-2.12365-.87988l-33.502-33.50366a2.99991,2.99991,0,0,1,4.2456-4.24438l33.502,33.50366a3.00666,3.00666,0,0,1-2.12183,5.12426Z" transform="translate(-231.16718 -163.02759)" fill="#fff"/></svg>