<svg xmlns="http://www.w3.org/2000/svg" data-name="Layer 1" width="786.81995" height="572.25773" viewBox="0 0 786.81995 572.25773" xmlns:xlink="http://www.w3.org/1999/xlink"><circle cx="458.32136" cy="74.18162" r="26.70075" fill="#f2f2f2"/><path d="M872.03753,661.02307c39.6877-30.22889,58.64352-81.02546,46.77635-129.46a209.14839,209.14839,0,0,0,12.36724,142.37354c10.17895,19.05234,23.21465,36.21284,30.29528,56.44508s5.93768,45.0267-11.9183,56.35518c-11.58233,7.3489-26.48819,6.90316-39.96833,4.99841-70.43854-9.96079-135.57671-48.7649-172.4833-109.89211-13.13218-21.8,30.46537,81.801,21.32608,60.19386-14.01048-33.28049-61.36494-76.13266-80.51317-111.67117A235.16609,235.16609,0,0,1,653.34811,449.126,240.026,240.026,0,0,1,709.32571,326.213a238.7039,238.7039,0,0,1,66.65125-73.74,14.28176,14.28176,0,0,0-9.758-26.12c-45.22136,16.68-87.0052,42.3359-120.93416,77.16737-33.9499,34.84898-58.77126,78.28173-72.30006,124.96882a255.62141,255.62141,0,0,0-8.80681,139.057c3.26743,13.70341-25.9615-76.95196-21.66142-63.93805,6.46541,19.64542,13.4649,39.22285,23.8716,57.28143,10.80273,18.73908,25.591,34.99576,43.30509,47.57271a154.55034,154.55034,0,0,0,289.67133-119.3254c.58694,16.5208-9.83844,30.62528-19.03291,44.49222s-19.06483,29.75014-16.8011,46.35376c.9476,6.98328,3.86805,13.6749,3.95553,20.72478.14959,12.01088-7.49816,22.49225-15.7068,31.02463s-17.86328,16.4034-24.10284,27.13039c-4.5647,7.82187-7.14849,18.02421-2.69575,26.00239,4.89893,8.752,16.33916,11.11046,26.23839,9.89634s19.206-5.59537,28.85678-8.24358c19.3677-5.31672,40.21576-4.59324,58.75442,3.21035s33.82469,23.4734,37.70306,43.0015" transform="translate(-206.59003 -163.87113)" fill="#f2f2f2"/><circle cx="122.00381" cy="307.05306" r="79" fill="#f2f2f2"/><ellipse cx="468.32136" cy="329.18162" rx="21.53369" ry="6.76007" fill="#f2f2f2"/><circle cx="541.32136" cy="289.18162" r="36" fill="#f2f2f2"/><rect x="553.91406" y="466.31229" width="126" height="8" fill="#f2f2f2"/><rect x="127.91406" y="462.31229" width="48" height="8" fill="#f2f2f2"/><rect x="127.91406" y="446.31229" width="48" height="8" fill="#f2f2f2"/><rect x="127.91406" y="430.31229" width="48" height="8" fill="#f2f2f2"/><rect x="127.91406" y="414.31229" width="48" height="8" fill="#f2f2f2"/><rect x="127.91406" y="398.31229" width="48" height="8" fill="#f2f2f2"/><rect x="553.32136" y="325.18162" width="72" height="8" fill="#3a6ea5"/><rect x="553.32136" y="309.18162" width="72" height="8" fill="#3a6ea5"/><rect x="553.32136" y="293.18162" width="72" height="8" fill="#3a6ea5"/><rect x="553.32136" y="277.18162" width="72" height="8" fill="#3a6ea5"/><rect x="553.32136" y="261.18162" width="72" height="8" fill="#3a6ea5"/><rect x="553.32136" y="245.18162" width="72" height="8" fill="#3a6ea5"/><rect x="600.32136" y="166.18162" width="100" height="70" fill="#f2f2f2"/><rect x="632.32136" y="43.18162" width="100" height="70" fill="#f2f2f2"/><rect x="464.32136" y="18.18162" width="100" height="70" fill="#f2f2f2"/><path d="M514.591,666.07514c11.54993,21.91875,36.81131,30.15623,36.81131,30.15623s5.63082-26.15141-5.91912-48.07017-36.81131-30.15623-36.81131-30.15623S503.04107,644.15638,514.591,666.07514Z" transform="translate(-206.59003 -163.87113)" fill="#f2f2f2"/><path d="M523.748,662.13386c21.20633,12.687,29.29215,38.00977,29.29215,38.00977s-26.24134,5.004-47.44767-7.683S476.30028,654.4509,476.30028,654.4509,502.54162,649.44689,523.748,662.13386Z" transform="translate(-206.59003 -163.87113)" fill="#f2f2f2"/><circle cx="171.32136" cy="164.18162" r="100" fill="#f2f2f2"/><path d="M268.32136,384.55275h-120a9.01016,9.01016,0,0,1-9-9v-110a9.01016,9.01016,0,0,1,9-9h120a9.01016,9.01016,0,0,1,9,9v110A9.01016,9.01016,0,0,1,268.32136,384.55275Zm-120-126a7.00786,7.00786,0,0,0-7,7v110a7.00786,7.00786,0,0,0,7,7h120a7.00787,7.00787,0,0,0,7-7v-110a7.00787,7.00787,0,0,0-7-7Z" transform="translate(-206.59003 -163.87113)" fill="#3f3d56"/><rect x="271.32136" y="371.18162" width="568" height="2" fill="#3f3d56"/><rect x="225.32136" y="211.18162" width="568" height="2" fill="#3f3d56"/><rect x="567.32136" y="211.18162" width="2" height="160" fill="#3f3d56"/><rect x="225.32136" y="211.18162" width="2" height="160" fill="#3f3d56"/><path d="M628.32136,542.55275h-180a9.01016,9.01016,0,0,1-9-9v-110a9.01016,9.01016,0,0,1,9-9h180a9.01016,9.01016,0,0,1,9,9v110A9.01016,9.01016,0,0,1,628.32136,542.55275Zm-180-126a7.00786,7.00786,0,0,0-7,7v110a7.00786,7.00786,0,0,0,7,7h180a7.00787,7.00787,0,0,0,7-7v-110a7.00787,7.00787,0,0,0-7-7Z" transform="translate(-206.59003 -163.87113)" fill="#3f3d56"/><rect x="7.53353" y="569.64131" width="516.95293" height="2.24072" fill="#3f3d56"/><path d="M480.19349,628.13582a22.11275,22.11275,0,0,0,42.96249,9.82831c.34712-1.52,3.38487-.6124,3.01782.98349a25.97006,25.97006,0,1,1-46.323-10.25056c.85051-1.25912,3.14911.19865,2.26266,1.43876Z" transform="translate(-206.59003 -163.87113)" fill="#3f3d56"/><path d="M219.59003,334.87113a22,22,0,1,1,22-22A22.02489,22.02489,0,0,1,219.59003,334.87113Zm0-42a20,20,0,1,0,20,20A20.02291,20.02291,0,0,0,219.59003,292.87113Z" transform="translate(-206.59003 -163.87113)" fill="#3f3d56"/><circle cx="13" cy="149" r="13" fill="#3a6ea5"/><path d="M576.4599,348.0676c-18.20731,20.6847-56.0182,25.95486-56.0182,25.95486s-9.32909-38.82931,8.87823-59.514S585.33813,288.5536,585.33813,288.5536,594.66721,327.38291,576.4599,348.0676Z" transform="translate(-206.59003 -163.87113)" fill="#3a6ea5"/><rect x="32.32136" y="299.18162" width="84" height="8" fill="#f2f2f2"/><rect x="32.32136" y="283.18162" width="84" height="8" fill="#f2f2f2"/><rect x="32.32136" y="267.18162" width="84" height="8" fill="#f2f2f2"/><circle cx="601.32136" cy="198.18162" r="13" fill="#3a6ea5"/><rect x="117.32136" y="257.18162" width="2" height="114" fill="#3f3d56"/><rect x="33.32136" y="257.18162" width="2" height="114" fill="#3f3d56"/><rect x="33.32136" y="257.18162" width="86" height="2" fill="#3f3d56"/><rect x="33.32136" y="369.18162" width="86" height="2" fill="#3f3d56"/><path d="M422.64441,536.48438l-39.89479-23.034a6.5,6.5,0,0,1,6.5-11.26562l39.89478,23.034a6.5,6.5,0,0,1-6.5,11.26563Z" transform="translate(-206.59003 -163.87113)" fill="#3a6ea5"/><path d="M437.89441,458.48438l-39.89479-23.034a6.5,6.5,0,0,1,6.5-11.26562l39.89478,23.034a6.5,6.5,0,1,1-6.5,11.26563Z" transform="translate(-206.59003 -163.87113)" fill="#3a6ea5"/><path d="M535.345,451.4846l39.98608-22.87225a6.5,6.5,0,0,1,6.458,11.28946L541.803,462.77407a6.5,6.5,0,1,1-6.458-11.28947Z" transform="translate(-206.59003 -163.87113)" fill="#3a6ea5"/><path d="M550.345,523.4846l39.98608-22.87225a6.5,6.5,0,1,1,6.458,11.28946L556.803,534.77407a6.5,6.5,0,0,1-6.458-11.28947Z" transform="translate(-206.59003 -163.87113)" fill="#3a6ea5"/><path d="M465.45943,453.254l-.02221-65.68a6.5,6.5,0,0,1,13-.0044l.02221,65.68a6.5,6.5,0,1,1-13,.0044Z" transform="translate(-206.59003 -163.87113)" fill="#3a6ea5"/><path d="M469.1723,516.7845l-.02221-65.68a6.5,6.5,0,0,1,13-.0044l.02221,65.68a6.5,6.5,0,1,1-13,.0044Z" transform="translate(-206.59003 -163.87113)" fill="#3a6ea5"/><path d="M548.6723,541.7845l-.02221-65.68a6.5,6.5,0,0,1,13-.0044l.02221,65.68a6.5,6.5,0,1,1-13,.0044Z" transform="translate(-206.59003 -163.87113)" fill="#3a6ea5"/><rect x="230.91403" y="115.50044" width="66.8001" height="42.33693" fill="#f2f2f2"/><path d="M449.81759,273.929H425.31357a6.11418,6.11418,0,0,0-6.10743,6.10742v16.95508a6.11418,6.11418,0,0,0,6.10743,6.10742h7.89644v1.43536c0,.39746,14.95605.68457,14.95605.02832V303.1l1.65149-.001a6.11394,6.11394,0,0,0,6.10743-6.10742v-16.955A6.11417,6.11417,0,0,0,449.81759,273.929Zm4.60743,23.06347a4.61441,4.61441,0,0,1-4.60743,4.60449l-1.83032.001a4.96121,4.96121,0,0,0-4.78223,4.71673l-13.54541-.001-.00488-1.47021-1.08575-.00195a4.61461,4.61461,0,0,1-4.60743-4.60352V280.0364a4.61461,4.61461,0,0,1,4.60743-4.60644h24.50421a4.61442,4.61442,0,0,1,4.60743,4.60644Z" transform="translate(-206.59003 -163.87113)" fill="#3f3d56"/><path d="M444.92123,297.03342h-24.2138a2.9781,2.9781,0,0,1-2.97461-2.97461V283.97154a2.9781,2.9781,0,0,1,2.97461-2.97461h24.2138a2.9781,2.9781,0,0,1,2.97461,2.97461v10.08727A2.9781,2.9781,0,0,1,444.92123,297.03342Z" transform="translate(-206.59003 -163.87113)" fill="#3a6ea5"/><path d="M453.37686,330.0045h-34.7295a2.54478,2.54478,0,0,1-2.54166-2.54166v-12.237a2.54479,2.54479,0,0,1,2.54166-2.54167h34.7295a2.54479,2.54479,0,0,1,2.54166,2.54167v12.237A2.54478,2.54478,0,0,1,453.37686,330.0045Z" transform="translate(-206.59003 -163.87113)" fill="#3a6ea5"/><path d="M486.3788,308.77624c-.08252-.27052-8.37715-28.0498,6.42284-53.69705l1.14319,1.6122c-14.18884,24.57037-6.06788,51.74554-6.00219,51.95948Z" transform="translate(-206.59003 -163.87113)" fill="#3f3d56"/><path d="M515.25863,302.02621c.157-.3292,3.70032-8.10242.18542-13.43464-3.33618-5.05671-10.79752-6.935-22.14242-5.59887l-.40869-1.9228c11.96818-1.43267,19.98396.60033,23.691,6.17316,4.02918,6.10569.22243,14.27189.1353,14.456Z" transform="translate(-206.59003 -163.87113)" fill="#3f3d56"/><path d="M486.39381,314.67943a6.1305,6.1305,0,0,1-4.35966-1.7916c-2.509-2.49286-3.09548-6.66513-1.74111-12.40545.8872-3.76517,3.5315-8.081,7.87326-12.87433,9.72337-10.75562,20.00547-16.74749,20.15083-16.8431l1.048,1.68008c-.14067.09342-10.17654,5.9534-19.688,16.47414-9.79217,10.82815-9.48066,17.80562-7.86141,19.42642a3.98976,3.98976,0,0,0,3.01629,1.1,8.25241,8.25241,0,0,0,2.1006-.30952l.593,1.894A9.73079,9.73079,0,0,1,486.39381,314.67943Z" transform="translate(-206.59003 -163.87113)" fill="#3f3d56"/><path d="M499.13537,315.78182l-1.83951-1.03359c.09178-.16277,9.27436-16.54595,8.748-30.08885-.5039-12.89333-2.42456-14.895-2.43827-14.91012l1.6526-1.09241c.17115.25944,4.17438,6.376,2.71874,30.87262C507.56985,313.02127,499.14111,315.76927,499.13537,315.78182Z" transform="translate(-206.59003 -163.87113)" fill="#3f3d56"/><path d="M383.03411,513.50087a6.1305,6.1305,0,0,1-4.35966-1.7916c-2.50895-2.49286-3.09548-6.66513-1.7411-12.40545.8872-3.76517,3.5315-8.081,7.87325-12.87433,9.72338-10.75562,20.00548-16.74749,20.15084-16.8431l1.048,1.68008c-.14067.09342-10.17655,5.9534-19.688,16.47414-9.79218,10.82815-9.48066,17.80562-7.86141,19.42642a3.98979,3.98979,0,0,0,3.01629,1.1,8.25239,8.25239,0,0,0,2.1006-.30952l.593,1.894A9.73076,9.73076,0,0,1,383.03411,513.50087Z" transform="translate(-206.59003 -163.87113)" fill="#3f3d56"/><path d="M395.77567,514.60326l-1.83951-1.03359c.09178-.16277,9.27436-16.54594,8.74795-30.08885-.5039-12.89332-2.42456-14.895-2.43827-14.91012l1.6526-1.09241c.17115.25944,4.17439,6.376,2.71874,30.87262C404.21015,511.84271,395.78141,514.59071,395.77567,514.60326Z" transform="translate(-206.59003 -163.87113)" fill="#3f3d56"/><path d="M334.95951,434.14388a12.53767,12.53767,0,0,0-11.02246,6.584l-47.2973,17.64551a12.51734,12.51734,0,0,0-10.13965-5.20111,12.63906,12.63906,0,0,0-5.29126,1.19189c-11.47779-9.14-22.95557-18.2915-34.43336-27.43076a12.52366,12.52366,0,1,0-13.68163,21.04858c3.92083,2.14673,7.83089,4.31,11.74541,6.46605.51416.28608,1.028.57766,1.541.86424,8.57528,4.75966,17.15056,9.51395,25.72585,14.27919a12.47555,12.47555,0,0,0-.258,8.14324,12.57392,12.57392,0,0,0,15.7652,7.93541l47.533-17.65033a12.59377,12.59377,0,0,0,18.62515-12.50134c-.01575-3.67131.02225-7.34262.01725-11.013A12.52648,12.52648,0,0,0,334.95951,434.14388Z" transform="translate(-206.59003 -163.87113)" fill="#3a6ea5"/></svg>